# xmcd
#
# Track frame offsets:
#	150
#	42300
#	57975
#	105150
#	177900
#	244125
#
# Disc length: 3504 seconds
#
# Revision: 2
# Processed by: cddbd v1.5.2PL0 Copyright (c) Steve Scherf et al.
# Submitted via: dBpowerAMP V4.0
#
DISCID=460dae06
DTITLE=Various Artist - Everybody's Favorite Wedding Music
DYEAR=1991
DGENRE=Wedding
TTITLE0=PRELUDE - Arrival of The Guests (Wedding) - Alninoni (Adagio), Moonlight Sonata - The Wedding Song - Marriage Of Figaro
TTITLE1=CEREMONY - Processional (Bridal Party's Entrance) - Love Me Tender - Bridal March
TTITLE2=CEREMONY - The Vows (Wedding - O, Promise Me - Pachelbel's Canon - There Is Love
TTITLE3=RECEPTION - Songs of Love (Wedding) - Kiss Me Again - Because - I Love You Truly - Melody Of Love - My Hero - They Didn't Believe Me
TTITLE4=RECEPTION - More Songs of Love (Wedding) - Sunrise, Sunset - Love Me Tender - Love Song - More - Traumerei
TTITLE5=RECESSIONAL - Wedding March (Wedding) - - 
EXTD=
EXTT0=
EXTT1=
EXTT2=
EXTT3=
EXTT4=
EXTT5=
PLAYORDER=
